<svg xmlns="http://www.w3.org/2000/svg" width="32.5" height="32.5" viewBox="0 0 32.5 32.5"><path d="M32.5,0H0V32.5H32.5Z" fill="none" fill-rule="evenodd"/><path d="M8.771,7H22.313a6.891,6.891,0,0,1,6.771,7,6.891,6.891,0,0,1-6.771,7H8.771A6.891,6.891,0,0,1,2,14,6.891,6.891,0,0,1,8.771,7ZM22.313,18.2A4.127,4.127,0,0,0,26.375,14a4.065,4.065,0,1,0-8.125,0A4.127,4.127,0,0,0,22.313,18.2Z" transform="translate(0.708 2.479)" fill="#41444b" fill-rule="evenodd"/><circle cx="5.5" cy="5.5" r="5.5" transform="translate(17 11)" fill="#fff"/></svg>