<svg xmlns="http://www.w3.org/2000/svg" width="77.871" height="53.572" viewBox="0 0 77.871 53.572"><g transform="translate(-7173.5 -3506.727)"><path d="M5.563,32.576H43.437A5.569,5.569,0,0,0,49,27.013V1.313A5.569,5.569,0,0,0,43.437-4.25H5.563A5.569,5.569,0,0,0,0,1.313v25.7A5.569,5.569,0,0,0,5.563,32.576Zm0-1.657a3.88,3.88,0,0,1-2.365-.8L14.525,18.534a.829.829,0,1,0-1.185-1.158L2.119,28.853a3.888,3.888,0,0,1-.462-1.84V3.139l19.255,16.3a5.545,5.545,0,0,0,7.192,0L47.343,3.123v23.89a3.881,3.881,0,0,1-.465,1.846L35.59,17.373a.828.828,0,0,0-1.182,1.161L45.8,30.123a3.882,3.882,0,0,1-2.36.8Zm0-33.512H43.437A3.911,3.911,0,0,1,47.327.965L27.033,18.176a3.893,3.893,0,0,1-5.05,0L1.673.981a3.91,3.91,0,0,1,3.89-3.574Zm0,0" transform="matrix(0.914, -0.407, 0.407, 0.914, 7193.357, 3530.54)" fill="#1cae86"/><line x2="13.5" transform="translate(7177 3538.5)" fill="none" stroke="#1cae86" stroke-linecap="round" stroke-width="2"/><line x2="19" transform="translate(7174.5 3544.5)" fill="none" stroke="#1cae86" stroke-linecap="round" stroke-width="2"/><line x2="17" transform="translate(7179.5 3550.5)" fill="none" stroke="#1cae86" stroke-linecap="round" stroke-width="2"/></g></svg>