<svg xmlns="http://www.w3.org/2000/svg" width="23.599" height="31.131" viewBox="0 0 23.599 31.131"><g transform="translate(0.5 0.5)"><g transform="translate(0 0)"><path d="M14.595,9.416h8v19.3a1.409,1.409,0,0,1-1.412,1.412H1.412A1.409,1.409,0,0,1,0,28.719V1.412A1.409,1.409,0,0,1,1.412,0h11.77V8A1.417,1.417,0,0,0,14.595,9.416Zm7.592-3.237L16.419.412a1.411,1.411,0,0,0-1-.412h-.353V7.533H22.6V7.174A1.408,1.408,0,0,0,22.187,6.179Z" transform="translate(0 0)" fill="none" stroke="#fff" stroke-width="1"/></g><path d="M11.069,4.583a.669.669,0,1,0,0-1.335H2.508L4.842,1.163C5.529.537,4.476-.422,3.79.2L.265,3.415a.641.641,0,0,0-.046,1L3.79,7.67c.687.626,1.694-.334,1.007-.959L2.508,4.583Z" transform="translate(4.509 22.517) rotate(-90)" fill="#fff"/></g></svg>