<svg xmlns="http://www.w3.org/2000/svg" width="23.68" height="15.402" viewBox="0 0 23.68 15.402"><g transform="translate(0 -80.204)"><g transform="translate(0 80.204)"><path d="M23.035,88.73H1.29V80.849a.645.645,0,1,0-1.29,0V94.961a.645.645,0,0,0,.645.645H.657a.645.645,0,0,0,.645-.645V90.02H22.39v4.941a.645.645,0,1,0,1.29,0V89.375A.645.645,0,0,0,23.035,88.73Z" transform="translate(0 -80.204)" fill="#333"/><path d="M40.028,116.661a2.766,2.766,0,1,0,2.766-2.766A2.769,2.769,0,0,0,40.028,116.661Zm4.242,0a1.476,1.476,0,1,1-1.476-1.476A1.478,1.478,0,0,1,44.27,116.661Z" transform="translate(-37.962 -112.156)" fill="#333"/><path d="M161.9,137.064V140a.645.645,0,0,0,.645.645h13.844a.645.645,0,0,0,.645-.645v-2.94a.645.645,0,0,0-.645-.645H162.548A.645.645,0,0,0,161.9,137.064Zm1.29.645h12.554v1.65H163.193Z" transform="translate(-153.548 -133.518)" fill="#333"/></g></g></svg>