<svg xmlns="http://www.w3.org/2000/svg" width="28.788" height="38" viewBox="0 0 28.788 38"><path d="M24.249,38H4.539A4.324,4.324,0,0,1,0,33.958V4.042A4.328,4.328,0,0,1,4.539,0H24.249a4.324,4.324,0,0,1,4.539,4.042V33.959A4.284,4.284,0,0,1,24.249,38ZM4.539,1.674a2.54,2.54,0,0,0-2.66,2.369V33.959a2.538,2.538,0,0,0,2.66,2.37H24.249a2.541,2.541,0,0,0,2.66-2.37V4.043a2.538,2.538,0,0,0-2.66-2.369Z" fill="#41444b" fill-rule="evenodd"/><path d="M14.03,34.091a2.867,2.867,0,1,1,2.039-.84A2.867,2.867,0,0,1,14.03,34.091Zm0-3.838a.959.959,0,1,0,.959.959A.983.983,0,0,0,14.03,30.253ZM17.108,5.3H10.952A1.092,1.092,0,0,1,10,4.152,1.092,1.092,0,0,1,10.952,3h6.156a1.092,1.092,0,0,1,.952,1.152A1.1,1.1,0,0,1,17.108,5.3Z" transform="translate(1.515 0.455)" fill="#41444b" fill-rule="evenodd"/></svg>