<svg xmlns="http://www.w3.org/2000/svg" width="27.083" height="14" viewBox="0 0 27.083 14"><g transform="translate(-6998.708 -3528.479)"><path d="M22.313,7H8.771A6.891,6.891,0,0,0,2,14a6.891,6.891,0,0,0,6.771,7H22.313a6.891,6.891,0,0,0,6.771-7A6.891,6.891,0,0,0,22.313,7ZM8.771,18.2A4.127,4.127,0,0,1,4.708,14,4.127,4.127,0,0,1,8.771,9.8,4.127,4.127,0,0,1,12.833,14,4.127,4.127,0,0,1,8.771,18.2Z" transform="translate(6996.708 3521.479)" fill="#e1e1e1" fill-rule="evenodd"/><circle cx="5.5" cy="5.5" r="5.5" transform="translate(7000.5 3530)" fill="#fff"/></g></svg>