<svg xmlns="http://www.w3.org/2000/svg" width="23.494" height="23.494" viewBox="0 0 23.494 23.494"><g transform="translate(0 1.678)"><path d="M19.3,44.206a.839.839,0,0,0-.839.839v8.391a.839.839,0,0,1-.839.839H2.517a.839.839,0,0,1-.839-.839V36.654a.839.839,0,0,1,.839-.839H12.586a.839.839,0,1,0,0-1.678H2.517A2.517,2.517,0,0,0,0,36.654V53.435a2.517,2.517,0,0,0,2.517,2.517h15.1a2.517,2.517,0,0,0,2.517-2.517V45.045A.839.839,0,0,0,19.3,44.206Z" transform="translate(0 -34.137)" fill="#41444b"/></g><g transform="translate(5.035 0)"><path d="M119.927.945a3.212,3.212,0,0,0-4.543,0L104.332,12a.848.848,0,0,0-.2.328l-1.678,5.034a.839.839,0,0,0,.8,1.1.852.852,0,0,0,.265-.043l5.034-1.678a.839.839,0,0,0,.328-.2L119.927,5.487A3.212,3.212,0,0,0,119.927.945ZM118.741,4.3,107.833,15.209,104.574,16.3l1.085-3.255L116.571,2.135a1.533,1.533,0,1,1,2.17,2.166Z" transform="translate(-102.409 -0.004)" fill="#41444b"/></g></svg>