<svg xmlns="http://www.w3.org/2000/svg" width="48" height="36.568" viewBox="0 0 48 36.568"><g transform="translate(4 -1)"><path d="M48,96.708a4.313,4.313,0,0,0-.689-2.4l-3.8-5.625a3.122,3.122,0,0,0-2.575-1.413,2.858,2.858,0,0,0-1.682.545l-3.708,2.666a3.029,3.029,0,0,1-1.7.48,2.749,2.749,0,0,1-1.307-.3L28.9,88.631a3.869,3.869,0,0,0-1.9-.461,4.267,4.267,0,0,0-2.665.887l-.424.344-1.443-.83a4.812,4.812,0,0,0-2.365-.563,4.975,4.975,0,0,0-2.171.461l-2.474,1.22a3.981,3.981,0,0,1-1.679.33,3.987,3.987,0,0,1-1.678-.33L9.63,88.468a3.193,3.193,0,0,0-1.413-.318,3.806,3.806,0,0,0-1.607.364,3.685,3.685,0,0,0-1.356,1.079L.747,95.428A3.691,3.691,0,0,0,0,97.684a3.625,3.625,0,0,0,1.032,2.58l4.2,4.147-1.995,2.405a3.823,3.823,0,0,0,.1,4.864l.4.444a2.875,2.875,0,0,0,1.319.826,3.837,3.837,0,0,0-.371,1.633,3.7,3.7,0,0,0,.924,2.492h0l.406.447a2.8,2.8,0,0,0,2.064.947,2.673,2.673,0,0,0,1.167-.272,3.56,3.56,0,0,0,.827,1.664l.406.446a2.79,2.79,0,0,0,2.064.947,2.727,2.727,0,0,0,1.658-.578,3.536,3.536,0,0,0,.778,1.477l.406.447a2.729,2.729,0,0,0,4.229-.116l1.763-2.128,2.4,2.562a2.773,2.773,0,0,0,2.036.919,2.814,2.814,0,0,0,2.19-1.094l.382-.473a3.6,3.6,0,0,0,.67-1.4l.928.99a2.786,2.786,0,0,0,2.034.916,2.824,2.824,0,0,0,2.194-1.1l.38-.473a3.651,3.651,0,0,0,.762-1.9,2.614,2.614,0,0,0,.743.122,2.828,2.828,0,0,0,2.193-1.1l.381-.473a3.736,3.736,0,0,0,.8-2.341,4.03,4.03,0,0,0-.082-.772,2.844,2.844,0,0,0,1.794-1.05l.382-.473a3.743,3.743,0,0,0,.8-2.342,3.7,3.7,0,0,0-.952-2.523l-.715-.763,6.454-8.247A4.3,4.3,0,0,0,48,96.708ZM5.814,111.2a1.266,1.266,0,0,1-.938-.429l-.405-.445a1.741,1.741,0,0,1-.047-2.211l4.085-4.927a1.243,1.243,0,0,1,1.923-.053l.4.445a3.2,3.2,0,0,1,.419,1.134,1.731,1.731,0,0,1-.242.884L6.6,110.9A1.256,1.256,0,0,1,5.814,111.2Zm3.263,4.914a1.244,1.244,0,0,1-1.922.053l-.406-.445h0A1.747,1.747,0,0,1,6.7,113.5s5.446-6.552,5.491-6.615a1.234,1.234,0,0,1,1.879-.01l.406.446a1.674,1.674,0,0,1,.419,1.133,1.691,1.691,0,0,1-.373,1.078ZM13.54,118.9a1.241,1.241,0,0,1-1.922.053l-.407-.446a1.671,1.671,0,0,1-.419-1.132,1.7,1.7,0,0,1,.3-.974l3.792-4.574a1.229,1.229,0,0,1,1.846.021l.407.446a1.743,1.743,0,0,1,.046,2.211Zm7.206-.482-2.3,2.776a1.243,1.243,0,0,1-1.922.053l-.406-.445a1.743,1.743,0,0,1-.046-2.211l2.3-2.776a1.276,1.276,0,0,1,.986-.482,1.263,1.263,0,0,1,.938.429l.407.446a1.744,1.744,0,0,1,.045,2.211Zm19.991-7.531a1.69,1.69,0,0,1-.362,1.064l-.381.473a1.278,1.278,0,0,1-1,.5,1.259,1.259,0,0,1-.924-.415l-6.425-6.868-1.111,1.374,6.877,7.365a1.741,1.741,0,0,1,.07,2.211l-.38.473a1.282,1.282,0,0,1-1,.5,1.261,1.261,0,0,1-.923-.415l-6.427-6.868-1.11,1.375,5.7,6.1a1.741,1.741,0,0,1,.056,2.189l-.381.473a1.277,1.277,0,0,1-1,.5,1.26,1.26,0,0,1-.924-.415l-5.692-6.074h0L24.3,115.785h0l.021.024,2.851,3.041a1.727,1.727,0,0,1,.024,2.142l-.381.473a1.275,1.275,0,0,1-.995.5,1.259,1.259,0,0,1-.923-.416l-2.482-2.657a3.866,3.866,0,0,0,.337-1.554,3.7,3.7,0,0,0-.924-2.491l-.407-.447a2.785,2.785,0,0,0-2.062-.947c-.057,0-.115.015-.171.019,0-.016,0-.032,0-.048a7.1,7.1,0,0,0-.924-2.493l-.406-.445a2.854,2.854,0,0,0-1.505-.886,3.911,3.911,0,0,0,.177-1.139,3.7,3.7,0,0,0-.924-2.491l-.406-.446a2.789,2.789,0,0,0-2.063-.949,2.449,2.449,0,0,0-.257.029,3.689,3.689,0,0,0-.915-2.384h0l-.4-.444a2.728,2.728,0,0,0-4.229.115l-.964,1.163L2.1,98.842a1.619,1.619,0,0,1-.461-1.155,1.64,1.64,0,0,1,.334-1.008l4.507-5.835a2.068,2.068,0,0,1,.753-.588,2.389,2.389,0,0,1,.99-.225,1.747,1.747,0,0,1,.77.167l2.475,1.22a5.378,5.378,0,0,0,2.321.482,5.375,5.375,0,0,0,2.321-.482l2.473-1.22a3.573,3.573,0,0,1,1.529-.308,3.428,3.428,0,0,1,1.634.363l.66.381-2.523,2.05a3.559,3.559,0,0,0-1.246,2.764,3.722,3.722,0,0,0,.581,2.017h0l.333.517a3.122,3.122,0,0,0,2.605,1.475,2.845,2.845,0,0,0,1.63-.514l1.509-1.047a2.225,2.225,0,0,1,1.253-.352,2.356,2.356,0,0,1,1.475.48l4.174,3.458a43.53,43.53,0,0,1,3.28,3.094l4.831,5.163A1.675,1.675,0,0,1,40.736,110.883Zm5.2-12.79-6.436,8.225L36.584,103.2a44.84,44.84,0,0,0-3.437-3.241L28.974,96.5a3.821,3.821,0,0,0-2.43-.833,3.675,3.675,0,0,0-2.1.622L22.94,97.332a1.38,1.38,0,0,1-.787.244,1.558,1.558,0,0,1-1.3-.716l-.332-.517h0a1.657,1.657,0,0,1-.26-.9,1.585,1.585,0,0,1,.556-1.23l4.461-3.622A2.832,2.832,0,0,1,27,90.049a2.448,2.448,0,0,1,1.181.272l3.631,2.033a4.158,4.158,0,0,0,2.021.486,4.459,4.459,0,0,0,2.568-.766l3.71-2.667a1.388,1.388,0,0,1,.817-.259,1.564,1.564,0,0,1,1.287.689l3.8,5.625a2.267,2.267,0,0,1,.346,1.247A2.292,2.292,0,0,1,45.941,98.093Z" transform="translate(-4 -86.27)" fill="#fefefe"/></g></svg>