<svg xmlns="http://www.w3.org/2000/svg" width="27.083" height="14" viewBox="0 0 27.083 14"><g transform="translate(-6998.708 -3551.479)"><path d="M8.771,7H22.313a6.891,6.891,0,0,1,6.771,7,6.891,6.891,0,0,1-6.771,7H8.771A6.891,6.891,0,0,1,2,14,6.891,6.891,0,0,1,8.771,7ZM22.313,18.2A4.127,4.127,0,0,0,26.375,14a4.065,4.065,0,1,0-8.125,0A4.127,4.127,0,0,0,22.313,18.2Z" transform="translate(6996.708 3544.479)" fill="#41444b" fill-rule="evenodd"/><circle cx="5.5" cy="5.5" r="5.5" transform="translate(7013 3553)" fill="#fff"/></g></svg>